<?xml version="1.0" encoding="utf-8"?>
<!-- Generator: Adobe Illustrator 16.0.0, SVG Export Plug-In . SVG Version: 6.00 Build 0)  -->
<!DOCTYPE svg PUBLIC "-//W3C//DTD SVG 1.1//EN" "http://www.w3.org/Graphics/SVG/1.1/DTD/svg11.dtd">
<svg version="1.1" id="Layer_1" xmlns="http://www.w3.org/2000/svg" xmlns:xlink="http://www.w3.org/1999/xlink" x="0px" y="0px"
	 width="360px" height="360px" viewBox="0 0 360 360" enable-background="new 0 0 360 360" xml:space="preserve">
<g>
	<g>
		<g>
			<path fill-rule="evenodd" clip-rule="evenodd" fill="#C91C86" d="M66.244,177.71v15.208h21.014v6.979H66.244v15.746h21.691v6.992
				H58.837v-51.909h29.098v6.983H66.244z M105.703,190.228l9.585-19.092h8.334l-13.592,26.607
				c4.704,7.816,11.318,17.223,18.305,22.862l2.836,2.303l-10.911-0.14l-0.409-0.272c-5.118-5.104-9.56-11.287-13.473-17.477
				l-8.604,17.617h-8.232l12.412-25.006c-8.912-15.463-17.795-36.572-19.803-54.187l-0.155-0.671l0.675-0.409
				c1.354-0.945,2.696-1.887,3.783-2.955l1.878-1.75l0.269,2.554C89.954,156.202,97.888,175.565,105.703,190.228L105.703,190.228z
				 M300.717,200.441c0.403,3.753,1.884,7.53,4.174,10.496c2.026,2.532,5.113,4.706,8.482,4.706c6.066,0,10.24-5.127,11.726-10.625
				l0.264-0.947h7.409l-0.404,1.614c-2.152,8.883-8.887,18.158-18.842,18.158c-0.969,0-2.04-0.142-2.975-0.41
				c-5.119-0.938-9.292-4.567-12.11-8.865c-3.378-5.134-5-11.444-5-17.619c0-10.344,5.117-23.397,15.898-26.482
				c1.351-0.403,2.688-0.535,4.034-0.535c8.2,0,14.151,6.295,17.234,13.293c2.3,4.979,3.106,10.511,2.825,16.017v1.199H300.717z
				 M275.145,209.435l11.975-38.299h7.538l-16.022,51.5h-6.875l-16.027-51.5h7.54L275.145,209.435z M246.984,185.396V171.67h5.786
				v13.725H246.984z M246.836,222.636v-33.759h7.145v33.759H246.836z M232.434,191.158c7.419,3.229,11.024,7.812,11.024,16.269
				c0,7.948-3.485,16.417-12.516,16.417c-3.371,0-6.326-1.763-8.478-4.181c-2.98-3.479-3.901-8.338-3.901-12.768l0.132-1.21h6.985
				v1.21c0,3.233,0.824,8.748,5.262,8.748c4.191,0,5.398-3.909,5.398-7.534c0-5.239-2.424-6.595-6.474-8.606
				c-2.428-1.212-4.572-2.292-6.463-4.293c-2.692-2.836-3.766-6.458-3.766-10.498c0-6.863,3.627-14.779,11.586-14.779
				c7.391,0,11.03,8.067,11.03,14.498v1.377h-6.989l-0.132-1.228c-0.148-2.413-1.089-6.58-4.191-6.58
				c-2.964,0-4.163,3.636-4.163,6.188C226.779,188.064,229.21,189.684,232.434,191.158L232.434,191.158z M208.319,218.46
				c-2.404,3.23-6.064,5.384-10.502,5.384c-5.784,0-10.496-3.081-13.464-8.083c-2.697-4.553-3.367-11.012-3.367-16.258v-28.368
				h7.146v28.226c0,3.763,0.406,8.87,2.416,12.235c1.606,2.699,4.176,4.047,7.27,4.047c2.833,0,4.979-1.075,6.607-3.364
				c3.22-4.308,3.639-8.742,3.639-13.988v-27.156h6.987v51.5h-6.731V218.46z M168.064,222.636v-51.362h7.145v51.362H168.064z
				 M144.626,178c-3.629,0-6.866,2.153-9.166,4.821c-3.207,3.784-4.568,9.028-4.568,13.987c0,7.94,4.298,18.835,13.734,18.835
				c5.67,0,9.558-4.047,11.587-9.153l0.265-0.805h7.68l-0.677,1.741c-3.236,8.607-8.864,16.417-18.991,16.417
				c-2.143,0-4.293-0.533-6.461-1.349c-9.695-3.892-14.138-15.6-14.138-25.546c0-10.489,5.244-23.262,16.142-26.482
				c1.501-0.403,2.981-0.535,4.457-0.535c9.839,0,16.44,8.067,19.122,16.929l0.416,1.628h-7.55l-0.265-0.809
				C154.184,182.689,150.296,178,144.626,178L144.626,178z M300.842,192.24h25.327c-0.674-3.751-2.156-7.66-4.976-10.484
				c-2.022-2.169-4.718-3.756-7.668-3.756c-2.975,0-5.806,1.587-7.838,3.756C303.008,184.58,301.525,188.329,300.842,192.24
				L300.842,192.24z"/>
			<path fill="#C91C86" d="M164.953,106.873c4.327-9.406,7.291-11.702,13.083-11.702v-12.24c-8.493,0.275-12.541,2.55-21.017,19.902
				l-5.528,11.431h-0.119V83.207h-13.213c0.684,6.182,0.684,17.336,0.684,35.62c0,18.164,0,29.308-0.684,35.488h13.734
				c-0.265-1.187-0.521-3.622-0.521-7.915v-12.901l5.647-11.564c7.266,19.895,10.231,29.97,10.901,32.38h14.965
				C180.172,149.494,173.452,130.807,164.953,106.873L164.953,106.873z"/>
			<path fill="#C91C86" d="M219.777,154.314c-1.082-3.739-1.891-9.809-1.891-15.987v-12.503c0-4.292-0.139-11.836-4.44-16.936
				c-3.907-4.572-9.288-5.937-18.99-5.937c-1.907,0-4.312,0.29-5.918,0.562v12.618c2.81-2.262,6.588-4.425,10.513-4.425
				c3.746,0,5.898,2.966,6.714,7.54c-12.923,3.89-21.151,9.663-21.151,21.503c0,10.212,6.734,14.783,12.542,14.783
				c4.033,0,7.27-2.278,9.951-4.689c0.273,0.531,0.813,2.129,1.49,3.472H219.777z M206.418,143.564L206.418,143.564
				c-0.909,1.217-2.806,2.427-4.835,2.427c-3.092,0-5.249-2.548-5.249-6.44c0-7.552,6.189-10.642,10.084-11.173V143.564z"/>
			<path fill="#C91C86" d="M258.297,138.048c0-15.582-18.598-14.646-18.598-22.034c0-1.885,1.228-3.913,4.581-3.913
				c5.114,0,9.021,2.165,10.651,3.11l-0.423-11.568c-2.264-0.402-6.188-0.691-8.21-0.691c-9.693,0-18.025,5.521-18.025,16.295
				c0,15.719,18.299,13.841,18.299,22.438c0,2.689-1.752,4.716-4.97,4.716c-5.949,0-11.325-6.054-13.479-8.608v14.381
				c3.915,2.297,8.481,3.358,12.919,3.358C250.086,155.532,258.297,148.685,258.297,138.048L258.297,138.048z"/>
			<path fill="#C91C86" d="M297.753,138.327v-12.503c0-4.292,0-11.836-4.313-16.936c-3.904-4.572-9.427-5.937-18.985-5.937
				c-1.891,0-4.313,0.29-6.073,0.562v12.618c2.975-2.262,6.763-4.425,10.652-4.425c3.778,0,5.921,2.966,6.726,7.54
				c-12.935,3.89-21.279,9.663-21.279,21.503c0,10.212,6.876,14.783,12.681,14.783c4.032,0,7.27-2.278,9.958-4.689
				c0.269,0.531,0.8,2.129,1.467,3.472h11.203C298.711,150.576,297.753,144.506,297.753,138.327L297.753,138.327z M286.449,143.564
				L286.449,143.564c-0.959,1.217-2.836,2.427-4.989,2.427c-2.968,0-5.249-2.548-5.249-6.44c0-7.552,6.192-10.642,10.238-11.173
				V143.564z"/>
			<path fill="#C91C86" d="M312.027,137.657c0,10.754,0.941,17.875,9.546,17.875c2.838,0,6.339-0.796,8.917-1.876v-8.062
				c-1.084,0.254-2.161,0.398-3.241,0.398c-2.966,0-3.909-1.75-3.909-9.415V113.32h6.997v-9.145h-6.997v-7.392
				c0-4.05,0.399-7.527,0.399-7.79h-12.11c0.271,1.333,0.398,3.74,0.398,7.118v8.064h-5.244v9.145h5.244V137.657z"/>
			<rect x="96.431" y="161.451" fill="#857CB6" width="67.728" height="3.096"/>
			<rect x="153.784" y="161.451" fill="#857CB6" width="176.553" height="3.096"/>
			<rect x="59.786" y="161.451" fill="#857CB6" width="23.971" height="3.096"/>
			<path fill="#BB82B8" d="M127.943,96.25c2.678,1.473,1.33-0.543,0.919-1.869C113.383,80.774,36.07,65.862,12.911,133.499
				l54.413,18.674c1.345,0.798,1.077,1.081,2.426-1.059l-49.556-21.396C35.264,89.119,88.207,75.004,127.943,96.25L127.943,96.25z"
				/>
			<path fill="#BB82B8" d="M105.575,141.271c-2.82-5.903-11.714-9.395-19.255-9.524c-6.461-0.142-16.968,3.622-18.461,10.488
				l8.622,2.68c1.083-9.145,21.683-9.406,28.549-4.02C105.181,141.012,105.428,141.151,105.575,141.271L105.575,141.271z"/>
			<path fill="#857CB6" d="M30.965,123.546c-3.897,6.722,32.861,15.451,36.358,14.781C67.324,138.327,34.992,116.81,30.965,123.546
				L30.965,123.546z"/>
			<path fill="#857CB6" d="M39.847,111.045c-5.639,5.5,27.477,22.967,31.127,23.109C70.974,134.155,45.502,105.393,39.847,111.045
				L39.847,111.045z"/>
			<path fill="#857CB6" d="M51.701,100.956c-6.877,4.034,20.473,29.174,23.836,30.255C75.537,131.21,58.697,96.922,51.701,100.956
				L51.701,100.956z"/>
			<path fill="#857CB6" d="M65.972,94.381c-7.668,2.004,11.854,33.052,14.829,35.074C80.8,129.455,73.774,92.213,65.972,94.381
				L65.972,94.381z"/>
			<path fill="#857CB6" d="M81.456,91.415c-7.929,0.119,2.569,34.934,4.999,37.494C86.455,128.909,89.68,91.268,81.456,91.415
				L81.456,91.415z"/>
			<path fill="#857CB6" d="M97.222,92.481c-7.68-1.896-6.87,34.292-5.383,37.509C91.839,129.99,105.181,94.381,97.222,92.481
				L97.222,92.481z"/>
			<path fill="#857CB6" d="M96.964,132.282c0,0,22.356-31.065,15.34-34.958C105.3,93.545,96.274,128.909,96.964,132.282
				L96.964,132.282z"/>
			<path fill="#857CB6" d="M125.367,105.791c-5.651-5.372-23.959,26.491-24.231,29.979
				C101.136,135.77,131.286,111.305,125.367,105.791L125.367,105.791z"/>
			<path fill-rule="evenodd" clip-rule="evenodd" fill="#857CB6" d="M88.602,140.211c1.079,13.043,6.742,28.096,12.265,40.065
				c5.786,12.783,16.43,31.591,27.468,40.328l2.836,2.303l-10.911-0.14l-0.409-0.272c-17.096-17.217-35.006-54.855-37.7-79.052
				l-0.155-0.671l0.675-0.409c1.354-0.945,2.696-1.887,3.783-2.955l1.878-1.75L88.602,140.211z"/>
		</g>
		<g>
			<rect x="61.11" y="240.182" fill-rule="evenodd" clip-rule="evenodd" fill="#231F20" width="272.376" height="35.189"/>
			<g>
				<path fill="#FFFFFF" d="M74.659,269.388v-23.331h6.312v10.594l7.385-10.594h7.44l-8.645,11.394l9.396,11.938h-7.946
					l-7.63-10.459v10.459H74.659z"/>
				<path fill="#FFFFFF" d="M136.04,257.77c0,1.69-0.318,3.263-0.938,4.729c-0.602,1.47-1.501,2.778-2.705,3.945
					c-1.18,1.139-2.546,2.033-4.073,2.653c-1.53,0.623-3.127,0.918-4.774,0.918c-1.679,0-3.277-0.295-4.807-0.918
					c-1.535-0.62-2.866-1.515-4.03-2.653c-1.196-1.167-2.115-2.486-2.742-3.972c-0.624-1.466-0.929-3.04-0.929-4.702
					c0-1.661,0.306-3.229,0.929-4.707c0.627-1.475,1.546-2.791,2.742-3.946c1.164-1.153,2.495-2.038,4.03-2.662
					c1.53-0.62,3.128-0.937,4.807-0.937c1.665,0,3.251,0.316,4.791,0.937c1.551,0.624,2.895,1.509,4.057,2.662
					c1.18,1.155,2.084,2.457,2.705,3.946C135.721,254.541,136.04,256.108,136.04,257.77z M123.549,264.631
					c1.763,0,3.22-0.642,4.375-1.945c1.173-1.296,1.736-2.926,1.736-4.916c0-1.949-0.588-3.573-1.759-4.881
					c-1.166-1.315-2.621-1.967-4.352-1.967c-1.772,0-3.229,0.651-4.391,1.951c-1.157,1.302-1.724,2.938-1.724,4.896
					c0,2.016,0.558,3.65,1.69,4.94C120.272,263.989,121.74,264.631,123.549,264.631z"/>
				<path fill="#FFFFFF" d="M157.441,269.388v-17.814h-5.244v-5.517h16.853v5.517h-5.238v17.814H157.441z"/>
				<path fill="#FFFFFF" d="M186.756,269.388v-23.331h6.367v9.069h8.51v-9.069h6.374v23.331h-6.374V259.9h-8.51v9.487H186.756z"/>
				<path fill="#FFFFFF" d="M228.776,269.388v-23.331h6.671c2.61,0,4.417,0.115,5.462,0.352c1.012,0.245,1.908,0.65,2.641,1.208
					c0.846,0.637,1.479,1.457,1.938,2.449c0.467,0.98,0.696,2.079,0.696,3.264c0,1.808-0.451,3.273-1.333,4.405
					c-0.902,1.136-2.201,1.897-3.896,2.252l6.373,9.401h-7.215l-5.355-9.123v9.123H228.776z M234.758,257.093h1.182
					c1.371,0,2.368-0.238,3.01-0.709c0.635-0.462,0.947-1.195,0.947-2.188c0-1.18-0.304-2.01-0.887-2.509
					c-0.577-0.498-1.583-0.729-2.968-0.729h-1.284V257.093z"/>
				<path fill="#FFFFFF" d="M261.332,246.057h6.346v11.356c0,1.668,0.046,2.873,0.124,3.593c0.08,0.727,0.225,1.351,0.434,1.821
					c0.26,0.596,0.674,1.049,1.274,1.368c0.613,0.323,1.344,0.47,2.223,0.47c0.864,0,1.604-0.146,2.218-0.47
					c0.598-0.319,1.034-0.772,1.285-1.368c0.199-0.471,0.347-1.095,0.432-1.821c0.085-0.72,0.121-1.925,0.121-3.593v-1.602v-9.755
					h6.354v12.348c0,2.564-0.164,4.455-0.47,5.665c-0.297,1.217-0.835,2.255-1.572,3.115c-0.791,0.945-1.889,1.668-3.273,2.14
					c-1.412,0.474-3.107,0.69-5.095,0.69c-1.993,0-3.694-0.217-5.087-0.69c-1.385-0.472-2.497-1.194-3.291-2.14
					c-0.735-0.86-1.246-1.898-1.561-3.115c-0.325-1.21-0.462-3.101-0.462-5.665v-2.422V246.057z"/>
				<path fill="#FFFFFF" d="M298.85,269.388v-23.331h4.872c3.625,0,6.193,0.17,7.692,0.508c1.516,0.341,2.846,0.904,3.98,1.706
					c1.485,1.037,2.605,2.353,3.38,3.962c0.754,1.612,1.164,3.459,1.164,5.527c0,2.039-0.41,3.886-1.164,5.497
					c-0.774,1.605-1.895,2.938-3.38,3.967c-1.115,0.792-2.42,1.351-3.866,1.674c-1.445,0.338-3.694,0.49-6.744,0.49h-1.063H298.85z
					 M305.157,264.165h1.073c2.508,0,4.331-0.506,5.476-1.548c1.156-0.998,1.732-2.639,1.732-4.857c0-2.243-0.576-3.889-1.732-4.925
					c-1.145-1.046-2.968-1.567-5.476-1.567h-1.073V264.165z"/>
			</g>
		</g>
	</g>
</g>
</svg>
