<?xml version="1.0" encoding="utf-8"?>
<!-- Generator: Adobe Illustrator 16.0.0, SVG Export Plug-In . SVG Version: 6.00 Build 0)  -->
<!DOCTYPE svg PUBLIC "-//W3C//DTD SVG 1.1//EN" "http://www.w3.org/Graphics/SVG/1.1/DTD/svg11.dtd">
<svg version="1.1" id="Layer_1" xmlns="http://www.w3.org/2000/svg" xmlns:xlink="http://www.w3.org/1999/xlink" x="0px" y="0px"
	 width="360px" height="360px" viewBox="0 0 360 360" enable-background="new 0 0 360 360" xml:space="preserve">
<g>
	<path fill="#DF8E84" d="M46.744,106.404c4.744,0,8.861,0.525,12.345,1.558c3.481,1.036,6.373,2.443,8.674,4.225
		c2.29,1.776,4.006,3.839,5.122,6.171c1.104,2.332,1.654,4.843,1.654,7.513c0,2.142-0.309,4.052-0.939,5.717
		c-0.633,1.668-1.444,3.152-2.449,4.446c-1.002,1.308-2.165,2.397-3.504,3.289c-1.331,0.899-2.667,1.628-4.003,2.224
		c-3.192,1.408-6.78,2.301-10.784,2.667c3.256,0.372,6.229,1.146,8.888,2.332c2.304,1.044,4.452,2.56,6.462,4.565
		c2.001,2,3.185,4.708,3.559,8.115l2.219,19.47c0.145,1.407,0.481,2.409,1.004,2.999c0.511,0.587,1.112,0.891,1.785,0.891
		c0.366,0,0.755-0.128,1.16-0.395c0.41-0.258,0.796-0.57,1.167-0.941c0.366-0.366,0.707-0.852,0.996-1.444l1.117,1.112
		c-0.45,0.965-1.074,1.815-1.883,2.557c-0.669,0.596-1.543,1.154-2.625,1.674c-1.068,0.511-2.355,0.783-3.825,0.783
		c-2.525,0-4.583-0.735-6.177-2.18c-1.589-1.444-2.501-3.127-2.726-5.056l-2.234-19.47c-0.288-2.517-0.763-4.645-1.436-6.394
		c-0.664-1.741-1.578-3.165-2.717-4.283c-1.152-1.112-2.624-1.921-4.407-2.452c-1.777-0.511-3.927-0.774-6.445-0.774h-4.449v36.148
		l6.667,1.666v1.109H26.172v-1.109l6.671-1.666v-72.288l-6.671-1.666v-1.115H46.744z M63.982,125.872
		c0-5.564-1.482-9.837-4.447-12.796c-2.967-2.965-7.23-4.443-12.791-4.443h-4.449v34.474h4.449c5.561,0,9.824-1.484,12.791-4.449
		C62.5,135.694,63.982,131.424,63.982,125.872"/>
	<polygon fill="#DF8E84" points="103.469,181.473 110.131,183.139 110.131,184.248 87.33,184.248 87.33,183.139 94.004,181.473 
		94.004,109.185 87.33,107.52 87.33,106.404 110.131,106.404 110.131,107.52 103.469,109.185 	"/>
	<polygon fill="#DF8E84" points="114.029,107.52 114.029,106.404 137.373,106.404 137.373,107.52 130.705,109.185 148.502,167.575 
		164.066,110.297 156.843,107.52 156.843,106.404 173.521,106.404 173.521,107.52 166.3,110.297 145.717,185.934 144.049,185.934 
		120.703,109.185 	"/>
	<path fill="#DF8E84" d="M200.771,161.458H177.97l-5.551,18.897l7.223,2.784v1.109h-16.678v-1.109l7.229-2.784l21.689-75.622h1.661
		l23.36,76.74l6.669,1.666v1.109h-23.357v-1.109l6.675-1.666L200.771,161.458z M178.53,159.338h21.574l-11.117-36.812
		L178.53,159.338z"/>
	<path fill="#DF8E84" d="M258.6,161.458h-22.801l-5.561,18.897l7.235,2.784v1.109h-16.685v-1.109l7.235-2.784l21.678-75.622h1.68
		l23.344,76.74l6.667,1.666v1.109h-23.345v-1.109l6.672-1.666L258.6,161.458z M236.357,159.338h21.575l-11.116-36.812
		L236.357,159.338z"/>
	<path fill="#DF8E84" d="M291.009,115.302c0-1.402-0.037-2.656-0.108-3.726c-0.076-1.081-0.146-2.023-0.221-2.832
		c-0.08-0.899-0.156-1.683-0.228-2.341h43.381l-35.592,75.625h27.801c0-3.113,0.637-6.01,1.897-8.674
		c1.26-2.67,2.362-2.5,4.781-2.622h0.752c0.025,0.968,0,0.051,0,1.169c0,0.891,0.037,0.295,0,1.339
		c-0.037,1.039-0.195,1.152-0.195,2.12c0,1.41,0.008,2.647,0.045,3.726c0.047,1.075,0.1,2.021,0.176,2.831
		c0.071,0.889,0.178,1.666,0.335,2.33h-46.71l35.588-75.616h-24.47c0,3.109-0.407,6.117-1.896,8.668
		c-1.506,2.596-3.07,2.596-4.772,2.639h-1.121"/>
	<g>
		<path fill="#DF8E84" d="M288.096,220.943c12.503-2.894,21.813-15.932,35.491-13.653c8.986,1.476,14.706,12.581,5.731,18.108
			c-6.189,3.8-18.398-1.867-14.398-9.82c2.945-5.851,12.838-1.878,8.841,4.972l-0.236-0.1c4.08-10.714-14.271-6.772-6.92,1.94
			c2.786,3.337,8.527,3.7,12.199,2.14c5.693-2.412,4.726-9.015,1.397-12.808c-2.742-3.127-7.624-3.916-11.525-3.777
			c-11.366,0.39-19.13,11.972-30.567,13.081L288.096,220.943z"/>
		<path fill="#DF8E84" d="M297.298,213.66c2.119-2.35,3.899-5.629,1.625-8.489c-1.499-1.87-4.415-2.817-6.61-1.711
			c-1.707,0.877-2.246,3.519-1.397,5.113c1.146,2.094,4.165,1.47,5.459,0.067l0.286,0.293c-2.034,2.188-6.032,1.702-6.521-1.553
			c-0.479-3.118,2.469-5.209,5.281-4.653c2.875,0.554,5.854,2.926,5.233,6.183c-0.776,4.023-3.886,6.214-6.965,8.356
			C295.019,216.183,296.221,214.847,297.298,213.66"/>
		<path fill="#DF8E84" d="M308.254,210.025c-2.42-0.13-4.923,1.992-6.679,3.399c-1.033,0.823-2.134,1.552-3.218,2.313l-0.009-0.031
			c1.555-1.129,2.936-2.832,4.408-3.91c1.758-1.291,3.789-2.426,6.007-2.29c3.948,0.236,5.553,5.797,2.963,8.405
			c-2.128,2.128-6.907,0.556-5.885-2.829c0.613-2.043,5.031-1.782,3.684,1.019c-0.098,0.224-0.44,0.068-0.391-0.156
			c0.779-2.52-3.388-2.04-2.702,0.471c0.53,2.032,2.576,2.39,4.208,1.623C314.578,216.183,311.903,210.247,308.254,210.025"/>
	</g>
	<g>
		<path fill="#DF8E84" d="M71.903,220.943c-12.51-2.894-21.813-15.932-35.48-13.653c-8.996,1.476-14.72,12.581-5.736,18.108
			c6.196,3.8,18.389-1.867,14.389-9.82c-2.948-5.851-12.836-1.878-8.836,4.972l0.227-0.1c-4.063-10.714,14.275-6.772,6.94,1.94
			c-2.809,3.337-8.549,3.7-12.215,2.14c-5.686-2.412-4.73-9.015-1.393-12.808c2.749-3.127,7.624-3.916,11.531-3.777
			c11.361,0.39,19.11,11.972,30.566,13.081L71.903,220.943z"/>
		<path fill="#DF8E84" d="M62.704,213.66c-2.117-2.35-3.91-5.629-1.623-8.489c1.498-1.87,4.406-2.817,6.585-1.711
			c1.73,0.877,2.255,3.519,1.416,5.113c-1.143,2.094-4.168,1.47-5.459,0.067l-0.29,0.293c2.038,2.188,6.03,1.702,6.532-1.553
			c0.468-3.118-2.477-5.209-5.287-4.653c-2.873,0.554-5.861,2.926-5.231,6.183c0.782,4.023,3.879,6.214,6.964,8.356
			C64.972,216.183,63.779,214.847,62.704,213.66"/>
		<path fill="#DF8E84" d="M51.742,210.025c2.423-0.13,4.923,1.992,6.679,3.399c1.031,0.823,2.144,1.552,3.215,2.313l0.013-0.031
			c-1.543-1.129-2.925-2.832-4.418-3.91c-1.739-1.291-3.776-2.426-6.004-2.29c-3.955,0.236-5.544,5.797-2.954,8.405
			c2.117,2.128,6.897,0.556,5.888-2.829c-0.625-2.043-5.031-1.782-3.686,1.019c0.094,0.224,0.443,0.068,0.375-0.156
			c-0.771-2.52,3.396-2.04,2.723,0.471c-0.549,2.032-2.572,2.39-4.209,1.623C45.411,216.183,48.097,210.247,51.742,210.025"/>
	</g>
	<rect x="75.245" y="198.759" fill="#231F20" width="209.516" height="34.195"/>
	<text transform="matrix(1 0 0 1 82.0039 222.1641)" fill="#FFFFFF" font-family="'BodoniBT-BoldCondensed'" font-size="18.7503">PREMIUM WEDDIGN LAUNGE</text>
</g>
</svg>
